<?xml version="1.0" encoding="utf-8"?>
<!-- Generator: Adobe Illustrator 19.0.0, SVG Export Plug-In . SVG Version: 6.00 Build 0)  -->
<svg version="1.1" xmlns="http://www.w3.org/2000/svg" xmlns:xlink="http://www.w3.org/1999/xlink" x="0px" y="0px"
	 viewBox="0 0 256.3 256.3" style="enable-background:new 0 0 256.3 256.3;" xml:space="preserve">
<style type="text/css">
	.st0{fill:none;}
	.st1{fill:#FFEB3B;}
	.st2{fill:#282513;}
	.st3{fill:#344C0E;}
	.st4{fill:#44600D;}
	.st5{fill:#FFFFFF;}
</style>
<g id="bg">
	<rect id="XMLID_2_" class="st0" width="256.3" height="256.3"/>
</g>
<g id="Layer_1">
	<g id="XMLID_60_">
		<g id="eyeleaves">
			<g id="outer_frame">
				<circle id="XMLID_59_" class="st1" cx="128.2" cy="128.2" r="123.2"/>
				<path id="XMLID_72_" class="st2" d="M128.2,256.3C57.5,256.3,0,198.8,0,128.2S57.5,0,128.2,0s128.2,57.5,128.2,128.2
					S198.8,256.3,128.2,256.3z M128.2,10C63,10,10,63,10,128.2s53,118.2,118.2,118.2s118.2-53,118.2-118.2S193.3,10,128.2,10z"/>
			</g>
			<g id="leaf_4">
				<g id="XMLID_71_">
					<path id="XMLID_58_" class="st1" d="M42.9,43c-0.2,94.3,75.9,170.7,170.2,170.9"/>
					<path id="XMLID_70_" class="st2" d="M213.1,218.9c-46.9-0.1-91-18.4-124-51.6C56,134,37.8,89.9,37.9,43l10,0
						c-0.1,44.3,17,85.9,48.2,117.2s72.7,48.6,117,48.7L213.1,218.9z"/>
				</g>
				<g id="XMLID_69_">
					<path id="XMLID_56_" class="st1" d="M213.1,213.9C213.3,119.6,137.2,43.2,42.9,43"/>
					<path id="XMLID_68_" class="st2" d="M218.1,213.9l-10,0c0.1-44.3-17-85.9-48.2-117.2S87.2,48.1,42.9,48l0-10
						c46.9,0.1,91,18.4,124,51.6C200.1,122.8,218.2,167,218.1,213.9z"/>
				</g>
			</g>
			<g id="leaf_3_1_">
				<g id="XMLID_63_">
					<path id="XMLID_52_" class="st1" d="M213.5,43.3c-94.3-0.2-170.7,75.9-170.9,170.2"/>
					<path id="XMLID_62_" class="st2" d="M47.6,213.5l-10,0c0.1-46.9,18.4-91,51.6-124.1c33.1-33,77.1-51.1,123.9-51.1
						c0.1,0,0.2,0,0.4,0l0,10c-0.1,0-0.2,0-0.3,0C122,48.3,47.8,122.4,47.6,213.5z"/>
				</g>
				<g id="XMLID_61_">
					<path id="XMLID_49_" class="st1" d="M42.6,213.5c94.3,0.2,170.7-75.9,170.9-170.2"/>
					<path id="XMLID_50_" class="st2" d="M42.9,218.3c-0.1,0-0.2,0-0.4,0l0-10c0.1,0,0.2,0,0.3,0c44.1,0,85.6-17,116.8-48.1
						c31.3-31.2,48.6-72.7,48.7-116.9l10,0c-0.1,46.9-18.4,90.9-51.6,124C133.7,200.3,89.7,218.3,42.9,218.3z"/>
				</g>
			</g>
			<g id="leaf_2">
				<g id="XMLID_67_">
					<path id="XMLID_55_" class="st1" d="M128.3,7.9c-66.8,66.5-67,174.4-0.5,241.2"/>
					<path id="XMLID_66_" class="st2" d="M124.2,252.6C91.1,219.3,72.9,175.2,73,128.3c0.1-46.9,18.5-90.9,51.7-124l7.1,7.1
						c-31.4,31.2-48.7,72.8-48.8,117c-0.1,44.2,17.1,85.8,48.3,117.2L124.2,252.6z"/>
				</g>
				<g id="XMLID_65_">
					<path id="XMLID_53_" class="st1" d="M127.8,249c66.8-66.5,67-174.4,0.5-241.2"/>
					<path id="XMLID_64_" class="st2" d="M131.3,252.6l-7.1-7.1c31.4-31.2,48.7-72.8,48.8-117c0.1-44.2-17.1-85.8-48.3-117.2
						l7.1-7.1c33.1,33.2,51.3,77.4,51.2,124.2C182.9,175.4,164.6,219.5,131.3,252.6z"/>
				</g>
			</g>
		</g>
		<g id="leaf_1">
			<g id="XMLID_45_">
				<path id="XMLID_43_" class="st1" d="M248.6,128.7c-66.5-66.8-174.4-67-241.2-0.5"/>
			</g>
			<g id="XMLID_42_">
				<path id="XMLID_40_" class="st1" d="M7.4,128.2c66.5,66.8,174.4,67,241.2,0.5"/>
			</g>
			<g id="bola_do_olho">
				<circle id="iris" class="st3" cx="128.2" cy="128.2" r="54.9"/>
				<circle id="XMLID_6_" class="st4" cx="127.8" cy="128.2" r="53.5"/>
				<circle id="pupil" cx="128.2" cy="128.2" r="24.6"/>
				<circle id="reflex" class="st5" cx="112.1" cy="108.1" r="8.4"/>
			</g>
			<path id="XMLID_41_" class="st2" d="M128.3,183.3c-0.1,0-0.2,0-0.4,0c-46.9,0-90.9-18.4-124-51.7l7.1-7
				c64.4,64.7,169.4,64.9,234.1,0.5l7.1,7C219,165.2,175,183.3,128.3,183.3z"/>
			<path id="XMLID_44_" class="st2" d="M245.1,132.2C180.7,67.5,75.6,67.3,11,131.7l-7.1-7.1c33.2-33,77.1-51.3,123.9-51.3
				c0.1,0,0.2,0,0.4,0c46.9,0,90.9,18.5,124,51.8L245.1,132.2z"/>
		</g>
	</g>
</g>
</svg>
